# xmcd CD database file
#
# Track frame offsets:
#	150
#	23280
#	44906
#	86118
#	108263
#	124511
#	147717
#	169391
#	190174
#	210743
#	236862
#	258439
#
# Disc length: 3774 seconds
#
# Revision: 1
# Processed by: cddbd v1.5.2PL0 Copyright (c) Steve Scherf et al.
# Submitted via: CDex 1.51
#
DISCID=b00ebc0c
DTITLE=THE EAGLES - SPIRITS CIRCLE
DYEAR=1900
DGENRE=New Age
TTITLE0=01.ANANAU
TTITLE1=02.FLYIN CONDOR
TTITLE2=03.LLAQUI  RUNA
TTITLE3=04.CRY DANCE
TTITLE4=05.FLYGHT SONG
TTITLE5=06.WAYANAKUY
TTITLE6=07.SWEET lULLABY
TTITLE7=08.NIGHT SONG
TTITLE8=09.ALL THE PRETTY THINGS
TTITLE9=10.CHIRAPAQ
TTITLE10=11.THE LAST OF THE MOHICANS
TTITLE11=12.WHITE  BUFALO
EXTD=
EXTT0=
EXTT1=
EXTT2=
EXTT3=
EXTT4=
EXTT5=
EXTT6=
EXTT7=
EXTT8=
EXTT9=
EXTT10=
EXTT11=
PLAYORDER=
